<?xml version="1.0" encoding="UTF-8"?>
<svg id="Layer_1" xmlns="http://www.w3.org/2000/svg" version="1.1" viewBox="0 0 413.6 151.6" width="150" height="42">
  <!-- Generator: Adobe Illustrator 29.6.0, SVG Export Plug-In . SVG Version: 2.1.1 Build 207)  -->
  <defs>
    <style>
      .st0 {
        fill: #1b395f;
      }

      .st1 {
        fill: #706f6f;
      }
    </style>
  </defs>
  <path class="st0" d="M367.4,38.9c-1.7-1.3-3.6-2.5-5.5-3.5-7.2-4-15.4-6.2-24.1-6.2-27.5,0-49.9,22.4-49.9,49.9s5.7,26.5,14.9,35.5c.2.2.5.5.7.7,9,8.5,21.1,13.7,34.3,13.7s26.9-5.9,36-15.3c.4-.4.8-.8,1.1-1.2,8-8.8,12.8-20.5,12.8-33.4s-8-31.1-20.3-40.2ZM294.3,79.1c0-24,19.5-43.6,43.5-43.6s13.7,1.7,19.5,4.6l-37.3,38.6,31,23.5c-3.9-.4-7.7-.6-11.6-.6-11.7,0-23.2,2.1-34.3,6.1-6.8-7.7-10.8-17.7-10.8-28.7ZM337.9,122.6c-10.5,0-20.1-3.7-27.6-9.9,9.5-3.1,19.3-4.7,29.2-4.7,7.8,0,15.6.9,23.3,2.8l3.8,1c-7.7,6.7-17.7,10.8-28.7,10.8ZM369.9,108.6l-40.2-30.6,33.4-34.5c11.2,7.9,18.4,20.9,18.4,35.6s-4.4,21.8-11.6,29.5Z"/>
  <g>
    <path class="st0" d="M278.3,50.1v21.7h-5.1v-24.3h2.5c1.4,0,2.5,1.1,2.5,2.5Z"/>
    <path class="st0" d="M270.1,50.1v21.7h-8.1s-27.8,0-27.8,0h-.1s-1.5,0-1.5,0c-1.5,0-2.7-.3-3.8-.9-.8-.5-1.4-1.1-1.9-1.8-.4.7-.9,1.3-1.5,1.8-.9.6-1.9,1-3.1,1h-1.6c-1.5,0-2.7-.3-3.8-.9-.8-.5-1.4-1.1-1.9-1.8-.4.7-.9,1.3-1.5,1.8-.9.6-1.9,1-3.1,1h-3c0,2.4-.7,4.2-2,5.5-1.3,1.4-3.3,2-5.9,2s-.9,0-1.1,0h-.5v-4.3h.6c.1,0,.3,0,.6,0,1.1,0,1.9-.3,2.4-.9.5-.6.8-1.6.8-3v-13.8h2.5c1.4,0,2.5,1.1,2.5,2.5v7.5h3c1.1,0,1.8-.3,2.3-.9.5-.6.8-1.6.8-2.8v-6.3h2.5c1.4,0,2.5,1.1,2.5,2.5v3.8c0,1.3.3,2.2.8,2.8.5.6,1.3.9,2.3.9h.5c1.1,0,1.8-.3,2.3-.9.5-.6.8-1.6.8-2.8v-6.3h2.5c1.4,0,2.5,1.1,2.5,2.5v3.8c0,1.3.3,2.2.8,2.8.5.6,1.3.9,2.3.9h.3s18.3,0,18.3,0c1,0,1.7-.2,2.2-.7.5-.5.7-1.2.7-2.1s-.2-1.6-.7-2.1c-.5-.5-1.2-.7-2.2-.7h-16.1v-3.2l8.2-10.9,1.8,1.3c1,.7,1.1,2.2.3,3.3l-3.7,5.1h9.5c2.6,0,4.5.6,5.9,1.9,1.3,1.2,2,3,2,5.1s-.1,1.6-.4,2.3c-.1.3-.2.6-.4.8h3s2.4,0,2.4,0v-19.9h2.5c1.4,0,2.5,1.1,2.5,2.5Z"/>
    <path class="st0" d="M230.4,49.2h-4.8v-4.1h2.4c.8,0,1.3.2,1.8.6.4.4.6,1,.6,1.8v1.7Z"/>
    <path class="st0" d="M217.3,74.7h4.8v4.1h-2.4c-.8,0-1.3-.2-1.8-.6-.4-.4-.6-1-.6-1.8v-1.7Z"/>
    <path class="st0" d="M227,54.1h-4.8v-4.1h2.4c.8,0,1.3.2,1.8.6.4.4.6,1,.6,1.8v1.7Z"/>
    <path class="st0" d="M228.3,50h2.4c.8,0,1.3.2,1.8.6.4.4.6,1,.6,1.8v1.7h-4.8v-4.1Z"/>
    <path class="st0" d="M211.3,74.7h4.8v4.1h-2.4c-.8,0-1.3-.2-1.8-.6-.4-.4-.6-1-.6-1.8v-1.7Z"/>
    <path class="st0" d="M172.2,81h4.8v4.1h-2.4c-.8,0-1.3-.2-1.8-.6-.4-.4-.6-1-.6-1.8v-1.7Z"/>
    <path class="st0" d="M89.5,58.4v12.9c0,2.7-.7,4.7-2,6.1-1.3,1.4-3.3,2-5.9,2s-.9,0-1.1,0h-.5v-4.3h.6c.1,0,.3,0,.6,0,1.1,0,1.9-.3,2.4-.9.5-.6.8-1.6.8-3v-15.4h2.5c1.4,0,2.5,1.1,2.5,2.5Z"/>
    <path class="st0" d="M72.2,58.4v13.5h-20.3c-3.1,0-5.4-.8-6.9-2.4-1.5-1.6-2.2-4-2.2-7.1v-.6h2.7c1.3,0,2.3.9,2.5,2.2,0,.5.2,1,.3,1.4.3.7.7,1.2,1.3,1.6.6.3,1.4.5,2.4.5h15.2v-11.7h2.5c1.4,0,2.5,1.1,2.5,2.5Z"/>
    <path class="st0" d="M198.7,61.4c0,1.4-1.1,2.5-2.5,2.5h-2.5v-5.9c-.3,0-.6,0-.9,0-1.2,0-2.1.2-2.8.6-.5.4-.8.9-.8,1.7s0,1,.2,1.5c.2.8.5,1.6.9,2.5l.2.7c.4,1.1.7,2.1.9,3,.2.9.3,1.8.3,2.9,0,1.7-.4,3.3-1.2,4.5-.8,1.3-2,2.3-3.6,3-1.5.7-3.3,1-5.4,1s-4-.4-5.5-1.2c-1.6-.8-2.8-2-3.6-3.5-.8-1.5-1.2-3.3-1.2-5.4v-1.7h2.5c1.4,0,2.6,1.2,2.6,2.6,0,1.4.5,2.5,1.3,3.4.9,1,2.2,1.5,3.9,1.5s2-.2,2.8-.5c.8-.3,1.3-.8,1.8-1.4.4-.6.6-1.4.6-2.2s-.4-2.6-1-4.4l-.2-.6c-.4-1-.8-2.2-1.1-3.2-.2-.9-.4-1.8-.4-2.6,0-2,.8-3.7,2.3-4.8,1.5-1.1,3.7-1.6,6.5-1.6s3.3.1,5.3.3h.5v7.4Z"/>
    <path class="st0" d="M166.6,50.1v21.7h-9.2c-1.5,0-2.7-.3-3.8-.9-.8-.5-1.4-1.1-1.9-1.8-.4.7-.9,1.3-1.5,1.8-.9.6-1.9,1-3.1,1h-3.5c-1.4,0-2.6-.3-3.6-.9-.7-.4-1.3-1-1.8-1.7-.4.7-.8,1.3-1.4,1.8-.8.7-1.9,1-3.1,1s-2.2-.3-3.1-1c-.6-.4-1-1-1.4-1.7-.4.7-.9,1.2-1.5,1.7-.9.6-2,.9-3.2.9s-2.6-.3-3.6-1c-.7-.5-1.3-1.1-1.8-1.8-.4.7-.9,1.3-1.4,1.7-.9.6-1.9,1-3.1,1h-3.5c-1.4,0-2.7-.3-3.8-.9-.8-.5-1.4-1.1-1.9-1.8-.4.7-.9,1.3-1.5,1.8-.9.6-1.9,1-3.1,1h-1.2c-4.9,0-7.4-2.8-7.4-8.2v-16.1h2.5c1.4,0,2.5,1.1,2.5,2.5v13.5c0,1.4.3,2.4.8,3,.5.6,1.3.9,2.4.9h.4c1,0,1.8-.3,2.3-.9.5-.6.8-1.6.8-2.8v-6.3h2.6c1.4,0,2.5,1.1,2.5,2.5v3.8c0,1.3.3,2.2.8,2.8.5.6,1.3.9,2.3.9h2.4c1,0,1.8-.3,2.3-.9.5-.6.8-1.6.8-2.8v-6.3h2.5c1.4,0,2.5,1.1,2.5,2.5v3.8c0,1.3.2,2.3.7,3,.4.6,1,.9,1.7.9s1.5-.3,1.9-.9c.5-.6.7-1.6.7-3v-6.3h2.5c1.4,0,2.5,1.1,2.5,2.5v3.8c0,1.4.2,2.4.5,3,.4.7.9.8,1.2.8.6,0,1-.3,1.3-.8.4-.6.5-1.7.5-3v-6.3h2.5c1.4,0,2.5,1.1,2.5,2.5v3.8c0,1.3.3,2.2.8,2.8.5.6,1.3.9,2.3.9h2.4c1,0,1.8-.3,2.3-.9.5-.6.8-1.6.8-2.8v-16.2h2.5c1.4,0,2.5,1.1,2.5,2.5v13.7c0,1.3.3,2.2.8,2.8.5.6,1.3.9,2.3.9h3v-19.9h2.5c1.4,0,2.5,1.1,2.5,2.5Z"/>
    <path class="st0" d="M80.2,71.9h-5.1v-24.3h2.5c1.4,0,2.5,1.1,2.5,2.5v21.7Z"/>
    <path class="st0" d="M178.2,81h4.8v4.1h-2.4c-.8,0-1.3-.2-1.8-.6-.4-.4-.6-1-.6-1.8v-1.7Z"/>
    <path class="st0" d="M107.6,74.7h4.8v4.1h-2.4c-.8,0-1.4-.2-1.8-.6-.4-.4-.6-1-.6-1.8v-1.7Z"/>
    <path class="st0" d="M101.5,74.7h4.8v4.1h-2.4c-.8,0-1.3-.2-1.8-.6-.4-.4-.6-1-.6-1.8v-1.7Z"/>
    <path class="st0" d="M62.3,57.9h-4.8v-4.1h2.4c.8,0,1.3.2,1.8.6.4.4.6,1,.6,1.8v1.7Z"/>
    <path class="st0" d="M56.3,57.9h-4.8v-4.1h2.4c.8,0,1.4.2,1.8.6.4.4.6,1,.6,1.8v1.7Z"/>
  </g>
  <g>
    <path class="st1" d="M58.3,115.5l-1.5-4.5h-7.8c0,.1-1.2,4.4-1.2,4.4h-4.9c0,.1,6.9-20.2,6.9-20.2.3-1,1.1-1.5,2.2-1.5h3.4l7.6,21.8h-4.7ZM55.5,107.1l-2.6-8.3-2.6,8.3h5.2Z"/>
    <path class="st1" d="M64.8,115.5v-21.8h2.2c.6,0,1.1.2,1.5.6.4.4.6,1,.6,1.6v19.6h-4.4Z"/>
    <path class="st1" d="M93.8,115.5l-5.3-7.7c-.7-1-1.4-1.5-1.9-1.5s-.3,0-.4,0c-.7.3-1.1.7-1.1,1.4v7.7h-4.6v-19.4c0-.7.2-1.2.7-1.7.4-.5,1-.7,1.6-.7h2.2v8.5l7.7-8.5h5.9c0,0-8.5,8.9-8.5,8.9l9.1,12.8h-5.5Z"/>
    <path class="st1" d="M108.2,115.8c-1.3,0-2.4-.2-3.3-.7-1.7-.9-2.6-2.5-2.6-4.7,0-1.7.6-3.1,1.7-4,1.1-.9,2.9-1.5,5.4-1.7,1.6-.2,2.4-.7,2.4-1.5,0-.8-.9-1.2-2.4-1.2s-2.1.3-2.2,1h-4.4c0,.1,0,0,0,0,.5-3.2,2.7-4.8,6.4-4.8s6.8,1.6,6.9,4.8v5.7c0,2.9-1,4.9-3,6.1-1.1.6-2.5.9-4.1,1.1-.3,0-.6,0-.8,0ZM111.9,107.2c-.9.4-1.9.7-3,.9-1.5.3-2.3,1-2.3,2.2,0,1.2.7,1.8,1.8,1.8s1.9-.3,2.5-.9c.6-.6.9-1.5.9-2.6v-1.3Z"/>
    <path class="st1" d="M123.8,115.4c-.8,0-1.5,0-2.4-.1-1.6-.2-2.4-1.2-2.4-3.2v-18.4h2.2c.6,0,1.1.2,1.5.7.4.4.6,1,.6,1.6v2.5h2.4v1.1c0,.7-.2,1.2-.6,1.6-.4.4-.9.6-1.5.6h-.2v9.1c0,.6.3.9,1,.9h1.4v3.4c-.8.2-1.4.3-2.1.3Z"/>
    <path class="st1" d="M139.6,115.5v-8.8c0-1.6-.3-2.7-.8-3.3-.6-.8-1.4-1.2-2.3-1.2s-1.8.4-2.4,1.2c-.6.8-.9,1.9-.9,3.3v8.8h-4.4v-21.8h2.2c1.4,0,2.2.8,2.2,2.3v4.5c1.4-1.5,3-2.3,4.7-2.3s1.8.2,2.7.5c2.3.9,3.4,3.2,3.3,6.9v9.9h-4.4Z"/>
    <g>
      <path class="st1" d="M147,96.4v-3.6h2.2c.7,0,1.3.2,1.6.6.4.4.5.9.5,1.7v1.4h-4.4Z"/>
      <path class="st1" d="M147,115.5v-17.1h2.2c1.4,0,2.1.8,2.1,2.2v14.9h-4.4Z"/>
    </g>
    <path class="st1" d="M154.3,115.5v-8.8c.1-5.5,2.9-8.3,8.4-8.3h.8v4.7h-1.5c-2.1,0-3.2,1.1-3.2,3.5v8.9h-4.4Z"/>
    <g>
      <path class="st1" d="M166.5,96.4v-3.6h2.2c.7,0,1.3.2,1.6.6.4.4.5.9.5,1.7v1.4h-4.4Z"/>
      <path class="st1" d="M166.5,115.5v-17.1h2.2c1.4,0,2.1.8,2.1,2.2v14.9h-4.4Z"/>
    </g>
    <path class="st1" d="M198.7,115.5v-16l-3.8,15.9h-4.5c0,.1-4-15.9-4-15.9v16h-4.3v-19.4c0-.7.2-1.2.7-1.7.4-.5,1-.7,1.6-.7h4.1l4.1,15.8,3.8-15.6h6.6c0-.1,0,21.7,0,21.7h-4.3Z"/>
    <path class="st1" d="M213.5,115.8c-4.9,0-7.4-3-7.4-8.8s2.5-8.9,7.4-8.9,7.4,3,7.4,8.9-2.5,8.8-7.4,8.8ZM213.5,102.2c-2,0-3,1.6-3,4.8,0,3.2,1,4.7,2.9,4.7s2.9-1.6,2.9-4.8c0-3.2-.9-4.7-2.9-4.7Z"/>
    <path class="st1" d="M228.7,115.4c-.8,0-1.5,0-2.4-.1-1.6-.2-2.4-1.2-2.4-3.2v-18.4h2.2c.6,0,1.1.2,1.5.7.4.4.6,1,.6,1.6v2.5h2.4v1.1c0,.7-.2,1.2-.6,1.6-.4.4-.9.6-1.5.6h-.2v9.1c0,.6.3.9,1,.9h1.4v3.4c-.8.2-1.4.3-2.1.3Z"/>
    <path class="st1" d="M241.1,115.8c-4.9,0-7.4-3-7.4-8.8s2.5-8.9,7.4-8.9,7.4,3,7.4,8.9-2.5,8.8-7.4,8.8ZM241.1,102.2c-2,0-3,1.6-3,4.8,0,3.2,1,4.7,2.9,4.7s2.9-1.6,2.9-4.8c0-3.2-.9-4.7-2.9-4.7Z"/>
    <path class="st1" d="M251.5,115.5v-8.8c.1-5.5,2.9-8.3,8.4-8.3h.8v4.7h-1.5c-2.1,0-3.2,1.1-3.2,3.5v8.9h-4.4Z"/>
    <path class="st1" d="M270.7,115.8c-2.3,0-4-.5-5.1-1.5-1.3-1-1.9-2.5-1.9-4.5v-.2h4.3c.2,1,.5,1.5,1,1.9.5.4,1.3.6,2.3.6,1.6,0,2.4-.5,2.4-1.4s-.7-1.3-4-1.9c-3.6-.7-5.5-2.4-5.5-5.1,0-1.7.6-3.1,1.8-4.1,1.1-.9,2.7-1.4,4.8-1.5,2.1,0,3.8.5,5,1.5,1.2,1,1.9,2.4,2,4.2v.2s-2.7,0-2.7,0c-1,0-1.7-.4-1.9-1.2-.2-.7-1-1-2.3-1-2.2,0-2.2.8-2.2,1.1,0,.8,1,1.3,3,1.7,2.8.6,4.6,1.3,5.5,2.2.8.9,1.2,1.9,1.2,3.1,0,1.9-.7,3.4-2,4.3-1.2,1-3.1,1.5-5.5,1.5Z"/>
  </g>
</svg>